<svg id="Component_42_1" data-name="Component 42 – 1" xmlns="http://www.w3.org/2000/svg" width="98.098" height="40" viewBox="0 0 98.098 40">
  <g id="Group_10118" data-name="Group 10118" transform="translate(-409.656 -134)" style="mix-blend-mode: normal;isolation: isolate">
    <g id="Group_9299" data-name="Group 9299" transform="translate(409.656 134)">
      <g id="Group_9211" data-name="Group 9211">
        <g id="Group_9206" data-name="Group 9206">
          <path id="Path_6573" data-name="Path 6573" d="M1793.894-547.36l1.464,6.641h6.416l-3.6,16.208h8.892l3.263-13.732s7.317-6.191,5.854.9-2.814,12.832-2.814,12.832h9.455s2.252-12.494,2.814-13.732c1.35-.338,7.316-5.628,6.19,0s-2.7,13.732-2.7,13.732h9.229s3.49-15.758,3.827-19.247-6.978-6.641-15.871,0c-1.238-2.589-3.264-6.754-14.633-.563.367-1.472.64-3.079.64-3.079Z" transform="translate(-1793.894 555.804)" fill="#e2373f"/>
          <path id="Path_6574" data-name="Path 6574" d="M1861.895-528.088s4.268-20.82,4.943-22.958a10.417,10.417,0,0,1,10.554-8.333c5.4.113,15.456,0,15.456,0l-4.5,6.3s-6.272.036-8.27,0a3.657,3.657,0,0,0-3.908,2.208,25.006,25.006,0,0,0-1.389,5.1c3.177.1,8.71,0,8.71,0l-1.793,7.019h-8.5l-2.255,10.663Z" transform="translate(-1814.62 559.382)" fill="#e2373f"/>
          <path id="Exclusion_1" data-name="Exclusion 1" d="M9.326,30.912c-3.838,0-9.271-.076-9.326-.077l1.126-6.494c.018,0,3.091.077,6.17.077,1.817,0,3.3-.026,4.393-.077a5.52,5.52,0,0,0,3.448-2.727,4.655,4.655,0,0,0,.707-3.161.184.184,0,0,0-.033,0c-.171,0-.449.21-.869.528A12.235,12.235,0,0,1,7.1,21.744c-.259.024-.515.036-.76.036A5.163,5.163,0,0,1,2.3,20.108c-1.444-1.616-2.062-4.4-1.7-7.629A16.1,16.1,0,0,1,2.857,5.551,11.424,11.424,0,0,1,6.7,1.814,13.631,13.631,0,0,1,13.42,0c.253,0,.4.009.433.011H29.265l-.006.035c-.238,1.2-1.551,7.732-4.063,18.407-1.1,4.692-3.208,8.139-6.255,10.248A12.337,12.337,0,0,1,13.4,30.8c-.1.014-.183.025-.238.035C12.88,30.886,11.589,30.912,9.326,30.912ZM14.446,6.34c-.393,0-3.864.181-4.829,6.456a2.307,2.307,0,0,0,.377,1.843,1.639,1.639,0,0,0,1.286.482,4.991,4.991,0,0,0,1.36-.225,11.452,11.452,0,0,0,4.405-2.1c.016-.059,1.643-5.9,1.287-6.418a.077.077,0,0,0-.057-.037c-.166-.015-.581-.023-1.234-.023-1.118,0-2.545.023-2.558.023Z" transform="translate(68.833 8.347)" fill="#e2373f"/>
        </g>
      </g>
      <path id="Path_6829" data-name="Path 6829" d="M1.814-11.811l-.091.489a1.583,1.583,0,0,1,1.26-.564,1.21,1.21,0,0,1,.66.183A.854.854,0,0,1,4-11.231a1.655,1.655,0,0,1,1.335-.656,1.081,1.081,0,0,1,.892.405,1.664,1.664,0,0,1,.252,1.136l-.008.1L6.01-7.508H4.886l.457-2.749a1.987,1.987,0,0,0,.012-.274.426.426,0,0,0-.477-.43.946.946,0,0,0-.791.493l-.012.092-.5,2.868H2.454l.457-2.738a1.983,1.983,0,0,0,.012-.274.425.425,0,0,0-.473-.433.95.95,0,0,0-.767.4L1.147-7.508H.026l.743-4.3Zm7.545-.075a1.724,1.724,0,0,1,.979.292,1.645,1.645,0,0,1,.6.783,2.422,2.422,0,0,1,.137,1.107,2.616,2.616,0,0,1-.713,1.659,2.014,2.014,0,0,1-1.536.618,1.719,1.719,0,0,1-.97-.288,1.638,1.638,0,0,1-.6-.777,2.368,2.368,0,0,1-.139-1.1,2.693,2.693,0,0,1,.723-1.693A1.972,1.972,0,0,1,9.36-11.887Zm-1.132,2.7a.992.992,0,0,0,.179.6.594.594,0,0,0,.481.228A.871.871,0,0,0,9.7-8.828a2.363,2.363,0,0,0,.274-1.287,1.079,1.079,0,0,0-.185-.609.584.584,0,0,0-.483-.236.872.872,0,0,0-.8.47A2.339,2.339,0,0,0,8.227-9.183Zm5.448-3.681-.187,1.057H14.2l-.147.842h-.715l-.366,2.154a.548.548,0,0,0,.032.31q.056.107.27.115.064,0,.342-.02l-.079.878a1.885,1.885,0,0,1-.644.091,1.01,1.01,0,0,1-.822-.346,1.249,1.249,0,0,1-.223-.914l.37-2.269h-.608l.147-.842h.608l.183-1.057Zm2.773.977a1.724,1.724,0,0,1,.979.292,1.645,1.645,0,0,1,.6.783,2.422,2.422,0,0,1,.137,1.107,2.616,2.616,0,0,1-.713,1.659,2.014,2.014,0,0,1-1.536.618,1.719,1.719,0,0,1-.97-.288,1.638,1.638,0,0,1-.6-.777,2.368,2.368,0,0,1-.139-1.1,2.693,2.693,0,0,1,.723-1.693A1.972,1.972,0,0,1,16.448-11.887Zm-1.132,2.7a.992.992,0,0,0,.179.6.594.594,0,0,0,.481.228.871.871,0,0,0,.811-.474,2.363,2.363,0,0,0,.274-1.287,1.079,1.079,0,0,0-.185-.609.584.584,0,0,0-.483-.236.872.872,0,0,0-.8.47A2.339,2.339,0,0,0,15.316-9.183Zm6.119-1.547a2.313,2.313,0,0,0-.377-.04,1.086,1.086,0,0,0-.95.449l-.5,2.813h-1.12l.747-4.3,1.053,0-.1.524a1.182,1.182,0,0,1,1-.608,1.634,1.634,0,0,1,.389.056ZM23.72-7.508l.6-3.461H23.7l.147-.838.62,0,.056-.429a1.7,1.7,0,0,1,.56-1.079,1.7,1.7,0,0,1,1.164-.383,3.728,3.728,0,0,1,.608.083l-.1.89a1.389,1.389,0,0,0-.33-.048.821.821,0,0,0-.511.152.689.689,0,0,0-.264.467l-.06.351h.83l-.147.838h-.826l-.6,3.461Zm5.229-.445a1.484,1.484,0,0,1-1.184.524,1.1,1.1,0,0,1-.938-.445,1.627,1.627,0,0,1-.246-1.152l.465-2.781h1.12l-.473,2.8a1.107,1.107,0,0,0,0,.247.409.409,0,0,0,.441.41,1.024,1.024,0,0,0,.862-.4l.536-3.051h1.128l-.747,4.3H28.865Zm3.838.524a1.87,1.87,0,0,1-1-.276,1.674,1.674,0,0,1-.65-.747A2.082,2.082,0,0,1,30.971-9.5l.012-.159a2.779,2.779,0,0,1,.366-1.152,2.208,2.208,0,0,1,.787-.809,1.946,1.946,0,0,1,1.065-.268,1.487,1.487,0,0,1,1.258.611,2.094,2.094,0,0,1,.324,1.506l-.064.489H32.084a.922.922,0,0,0,.2.668.773.773,0,0,0,.6.258,1.375,1.375,0,0,0,1.073-.477l.513.636a1.594,1.594,0,0,1-.7.57A2.287,2.287,0,0,1,32.787-7.428Zm.358-3.532a.8.8,0,0,0-.55.195,1.711,1.711,0,0,0-.431.7H33.7l.024-.1a1.053,1.053,0,0,0,0-.3.577.577,0,0,0-.195-.36A.61.61,0,0,0,33.144-10.961Zm3.091,3.453H35.107l1.061-6.1h1.124Zm3.171-2.154a2.975,2.975,0,0,1,.65-1.619,1.649,1.649,0,0,1,1.337-.61,1.206,1.206,0,0,1,1.025.5l.147-.417,1.029,0-.7,4.152A2.026,2.026,0,0,1,42.16-6.3a2.274,2.274,0,0,1-1.526.485A2.12,2.12,0,0,1,39.784-6a1.818,1.818,0,0,1-.668-.507l.556-.683a1.194,1.194,0,0,0,.938.489,1.1,1.1,0,0,0,.747-.228,1.223,1.223,0,0,0,.421-.689l.064-.258a1.4,1.4,0,0,1-1.053.453,1.235,1.235,0,0,1-1-.467,2.007,2.007,0,0,1-.405-1.194A4.012,4.012,0,0,1,39.406-9.661Zm1.1.472a1.027,1.027,0,0,0,.157.6.549.549,0,0,0,.455.237,1,1,0,0,0,.811-.39l.334-1.823a.659.659,0,0,0-.632-.39.879.879,0,0,0-.727.346,1.811,1.811,0,0,0-.374.951A4.179,4.179,0,0,0,40.507-9.19Zm6.175-1.54a2.314,2.314,0,0,0-.377-.04,1.086,1.086,0,0,0-.95.449l-.5,2.813h-1.12l.747-4.3,1.053,0-.1.524a1.182,1.182,0,0,1,1-.608,1.634,1.634,0,0,1,.389.056Zm2.293-1.156a1.724,1.724,0,0,1,.979.292,1.645,1.645,0,0,1,.6.783,2.422,2.422,0,0,1,.137,1.107,2.616,2.616,0,0,1-.713,1.659,2.014,2.014,0,0,1-1.536.618,1.719,1.719,0,0,1-.969-.288,1.638,1.638,0,0,1-.6-.777,2.368,2.368,0,0,1-.139-1.1,2.693,2.693,0,0,1,.723-1.693A1.972,1.972,0,0,1,48.974-11.887Zm-1.132,2.7a.992.992,0,0,0,.179.6.594.594,0,0,0,.481.228.871.871,0,0,0,.811-.474,2.363,2.363,0,0,0,.274-1.287,1.079,1.079,0,0,0-.185-.609.584.584,0,0,0-.483-.236.872.872,0,0,0-.8.47A2.339,2.339,0,0,0,47.842-9.183Zm5.837,1.231a1.484,1.484,0,0,1-1.184.524,1.1,1.1,0,0,1-.938-.445,1.627,1.627,0,0,1-.246-1.152l.465-2.781H52.9l-.473,2.8a1.106,1.106,0,0,0,0,.247.409.409,0,0,0,.441.41,1.024,1.024,0,0,0,.862-.4l.536-3.051h1.128l-.747,4.3H53.6ZM59.6-9.646a3.551,3.551,0,0,1-.354,1.2,1.946,1.946,0,0,1-.671.779,1.555,1.555,0,0,1-.89.242,1.241,1.241,0,0,1-.985-.465l-.393,2.034h-1.12l1.029-5.952,1.033,0-.075.433a1.373,1.373,0,0,1,1.1-.509,1.221,1.221,0,0,1,.981.459,2,2,0,0,1,.373,1.2A4.644,4.644,0,0,1,59.6-9.646Zm-1.113-.082.024-.382a1.063,1.063,0,0,0-.141-.613.506.506,0,0,0-.435-.235.925.925,0,0,0-.807.414L56.81-8.768a.627.627,0,0,0,.632.418.809.809,0,0,0,.675-.314A2.153,2.153,0,0,0,58.491-9.727Z" transform="translate(3.392 45.811)" fill="#003875"/>
    </g>
  </g>
</svg>
